<mxfile host="app.diagrams.net" modified="2024-03-19T11:26:31.580Z" agent="Mozilla/5.0 (Windows NT 10.0; Win64; x64) AppleWebKit/537.36 (KHTML, like Gecko) Chrome/122.0.0.0 Safari/537.36" etag="asTw70VJBx2Qs0pjp_Af" version="24.0.7" type="device">
  <diagram id="prtHgNgQTEPvFCAcTncT" name="Page-1">
    <mxGraphModel dx="1195" dy="682" grid="1" gridSize="10" guides="1" tooltips="1" connect="1" arrows="1" fold="1" page="1" pageScale="1" pageWidth="827" pageHeight="1169" math="0" shadow="0">
      <root>
        <mxCell id="0" />
        <mxCell id="1" parent="0" />
        <mxCell id="7-ozE5FEiwkaNfamRzjg-29" value="" style="rounded=1;whiteSpace=wrap;html=1;fillColor=none;dashed=1;dashPattern=8 8;" vertex="1" parent="1">
          <mxGeometry x="150" y="180" width="1160" height="500" as="geometry" />
        </mxCell>
        <mxCell id="27pvtsyfk3BGXvMzDFiC-11" style="rounded=0;orthogonalLoop=1;jettySize=auto;html=1;entryX=0.5;entryY=0;entryDx=0;entryDy=0;exitX=1;exitY=0.75;exitDx=0;exitDy=0;" parent="1" source="27pvtsyfk3BGXvMzDFiC-4" target="27pvtsyfk3BGXvMzDFiC-6" edge="1">
          <mxGeometry relative="1" as="geometry">
            <mxPoint x="840" y="80" as="sourcePoint" />
          </mxGeometry>
        </mxCell>
        <mxCell id="27pvtsyfk3BGXvMzDFiC-12" value="makes HTTP&amp;nbsp;&lt;div style=&quot;font-size: 9px;&quot;&gt;GET call&lt;br style=&quot;font-size: 9px;&quot;&gt;[query]&lt;/div&gt;" style="edgeLabel;html=1;align=center;verticalAlign=middle;resizable=0;points=[];fontSize=9;" parent="27pvtsyfk3BGXvMzDFiC-11" vertex="1" connectable="0">
          <mxGeometry x="-0.1321" relative="1" as="geometry">
            <mxPoint x="28" y="5" as="offset" />
          </mxGeometry>
        </mxCell>
        <mxCell id="27pvtsyfk3BGXvMzDFiC-13" style="rounded=0;orthogonalLoop=1;jettySize=auto;html=1;entryX=0.5;entryY=0;entryDx=0;entryDy=0;exitX=0.25;exitY=1;exitDx=0;exitDy=0;" parent="1" source="27pvtsyfk3BGXvMzDFiC-4" target="27pvtsyfk3BGXvMzDFiC-8" edge="1">
          <mxGeometry relative="1" as="geometry">
            <mxPoint x="430" y="130" as="sourcePoint" />
          </mxGeometry>
        </mxCell>
        <mxCell id="27pvtsyfk3BGXvMzDFiC-14" value="makes HTTP&lt;div style=&quot;font-size: 9px;&quot;&gt;GET calls&lt;/div&gt;&lt;div style=&quot;font-size: 9px;&quot;&gt;[query]&lt;/div&gt;" style="edgeLabel;html=1;align=center;verticalAlign=middle;resizable=0;points=[];fontSize=9;" parent="27pvtsyfk3BGXvMzDFiC-13" vertex="1" connectable="0">
          <mxGeometry x="0.0124" y="1" relative="1" as="geometry">
            <mxPoint x="-24" y="-11" as="offset" />
          </mxGeometry>
        </mxCell>
        <mxCell id="27pvtsyfk3BGXvMzDFiC-15" style="rounded=0;orthogonalLoop=1;jettySize=auto;html=1;entryX=1;entryY=0.25;entryDx=0;entryDy=0;exitX=0;exitY=0.75;exitDx=0;exitDy=0;" parent="1" source="27pvtsyfk3BGXvMzDFiC-4" target="27pvtsyfk3BGXvMzDFiC-9" edge="1">
          <mxGeometry relative="1" as="geometry">
            <mxPoint x="450" y="140" as="sourcePoint" />
          </mxGeometry>
        </mxCell>
        <mxCell id="27pvtsyfk3BGXvMzDFiC-16" value="&lt;span style=&quot;color: rgba(0, 0, 0, 0); font-family: monospace; font-size: 0px; text-align: start; background-color: rgb(251, 251, 251);&quot;&gt;%3CmxGraphModel%3E%3Croot%3E%3CmxCell%20id%3D%220%22%2F%3E%3CmxCell%20id%3D%221%22%20parent%3D%220%22%2F%3E%3CmxCell%20id%3D%222%22%20value%3D%22makes%20HTTP%26lt%3Bdiv%20style%3D%26quot%3Bfont-size%3A%209px%3B%26quot%3B%26gt%3BGET%20calls%26lt%3B%2Fdiv%26gt%3B%26lt%3Bdiv%20style%3D%26quot%3Bfont-size%3A%209px%3B%26quot%3B%26gt%3B%5Bquery%5D%26lt%3B%2Fdiv%26gt%3B%22%20style%3D%22edgeLabel%3Bhtml%3D1%3Balign%3Dcenter%3BverticalAlign%3Dmiddle%3Bresizable%3D0%3Bpoints%3D%5B%5D%3BfontSize%3D9%3B%22%20vertex%3D%221%22%20connectable%3D%220%22%20parent%3D%221%22%3E%3CmxGeometry%20x%3D%22384.17242865635876%22%20y%3D%22161%22%20as%3D%22geometry%22%2F%3E%3C%2FmxCell%3E%3C%2Froot%3E%3C%2FmxGraphModel%3E&lt;/span&gt;" style="edgeLabel;html=1;align=center;verticalAlign=middle;resizable=0;points=[];" parent="27pvtsyfk3BGXvMzDFiC-15" vertex="1" connectable="0">
          <mxGeometry x="-0.0897" relative="1" as="geometry">
            <mxPoint as="offset" />
          </mxGeometry>
        </mxCell>
        <mxCell id="27pvtsyfk3BGXvMzDFiC-18" value="&lt;span style=&quot;font-size: 9px;&quot;&gt;makes HTTP&lt;/span&gt;&lt;div style=&quot;font-size: 9px;&quot;&gt;GET calls&lt;/div&gt;&lt;div style=&quot;font-size: 9px;&quot;&gt;[query]&lt;/div&gt;" style="edgeLabel;html=1;align=center;verticalAlign=middle;resizable=0;points=[];fontSize=9;" parent="27pvtsyfk3BGXvMzDFiC-15" vertex="1" connectable="0">
          <mxGeometry x="0.0391" y="-1" relative="1" as="geometry">
            <mxPoint x="20" y="-11" as="offset" />
          </mxGeometry>
        </mxCell>
        <mxCell id="27pvtsyfk3BGXvMzDFiC-23" style="rounded=0;orthogonalLoop=1;jettySize=auto;html=1;exitX=0.75;exitY=1;exitDx=0;exitDy=0;entryX=0.5;entryY=0;entryDx=0;entryDy=0;" parent="1" source="27pvtsyfk3BGXvMzDFiC-4" target="27pvtsyfk3BGXvMzDFiC-10" edge="1">
          <mxGeometry relative="1" as="geometry" />
        </mxCell>
        <mxCell id="27pvtsyfk3BGXvMzDFiC-24" value="makes HTTP GET&amp;nbsp;&lt;div style=&quot;font-size: 9px;&quot;&gt;POST/JSON DELETE&lt;div style=&quot;font-size: 9px;&quot;&gt;calls&amp;nbsp;&lt;/div&gt;&lt;div style=&quot;font-size: 9px;&quot;&gt;[command]&amp;nbsp;&lt;/div&gt;&lt;/div&gt;" style="edgeLabel;html=1;align=center;verticalAlign=middle;resizable=0;points=[];fontSize=9;" parent="27pvtsyfk3BGXvMzDFiC-23" vertex="1" connectable="0">
          <mxGeometry x="-0.2252" y="-1" relative="1" as="geometry">
            <mxPoint x="47" y="9" as="offset" />
          </mxGeometry>
        </mxCell>
        <mxCell id="27pvtsyfk3BGXvMzDFiC-4" value="&lt;div&gt;&lt;br&gt;&lt;/div&gt;&lt;div&gt;&lt;br&gt;&lt;/div&gt;User&lt;br&gt;[person]" style="shape=actor;whiteSpace=wrap;html=1;fillColor=#dae8fc;strokeColor=#6c8ebf;" parent="1" vertex="1">
          <mxGeometry x="700" y="40" width="70" height="70" as="geometry" />
        </mxCell>
        <mxCell id="27pvtsyfk3BGXvMzDFiC-31" style="edgeStyle=orthogonalEdgeStyle;rounded=0;orthogonalLoop=1;jettySize=auto;html=1;exitX=0.5;exitY=1;exitDx=0;exitDy=0;entryX=0.5;entryY=0;entryDx=0;entryDy=0;" parent="1" source="27pvtsyfk3BGXvMzDFiC-6" target="27pvtsyfk3BGXvMzDFiC-25" edge="1">
          <mxGeometry relative="1" as="geometry" />
        </mxCell>
        <mxCell id="27pvtsyfk3BGXvMzDFiC-38" value="query for prediction history" style="edgeLabel;html=1;align=center;verticalAlign=middle;resizable=0;points=[];fontSize=9;" parent="27pvtsyfk3BGXvMzDFiC-31" vertex="1" connectable="0">
          <mxGeometry x="-0.1476" y="1" relative="1" as="geometry">
            <mxPoint x="-1" y="4" as="offset" />
          </mxGeometry>
        </mxCell>
        <mxCell id="27pvtsyfk3BGXvMzDFiC-6" value="&lt;font style=&quot;font-size: 9px;&quot;&gt;Historical Prediction Cr Controller&lt;/font&gt;&lt;div style=&quot;&quot;&gt;&lt;font style=&quot;font-size: 8px;&quot;&gt;&lt;br&gt;&lt;/font&gt;&lt;/div&gt;&lt;div style=&quot;&quot;&gt;&lt;font style=&quot;font-weight: normal; font-size: 7px;&quot;&gt;[Componnent: Spring Rest Controller]&lt;/font&gt;&lt;/div&gt;&lt;div style=&quot;&quot;&gt;&lt;font style=&quot;font-size: 8px; font-weight: normal;&quot;&gt;&lt;br&gt;&lt;/font&gt;&lt;/div&gt;&lt;div style=&quot;&quot;&gt;&lt;font style=&quot;font-size: 8px; font-weight: normal;&quot;&gt;Allows user to see history of weather predictions&amp;nbsp;with the result.&lt;/font&gt;&lt;/div&gt;" style="rounded=1;whiteSpace=wrap;html=1;fontSize=8;fontStyle=1;fillColor=#dae8fc;strokeColor=#6c8ebf;" parent="1" vertex="1">
          <mxGeometry x="1125" y="200" width="150" height="80" as="geometry" />
        </mxCell>
        <mxCell id="27pvtsyfk3BGXvMzDFiC-36" style="edgeStyle=orthogonalEdgeStyle;rounded=0;orthogonalLoop=1;jettySize=auto;html=1;exitX=0.5;exitY=1;exitDx=0;exitDy=0;entryX=0.5;entryY=0;entryDx=0;entryDy=0;" parent="1" source="27pvtsyfk3BGXvMzDFiC-8" target="27pvtsyfk3BGXvMzDFiC-32" edge="1">
          <mxGeometry relative="1" as="geometry" />
        </mxCell>
        <mxCell id="27pvtsyfk3BGXvMzDFiC-39" value="query for historical or current weather" style="edgeLabel;html=1;align=center;verticalAlign=middle;resizable=0;points=[];fontSize=9;" parent="27pvtsyfk3BGXvMzDFiC-36" vertex="1" connectable="0">
          <mxGeometry x="0.1054" relative="1" as="geometry">
            <mxPoint y="-3" as="offset" />
          </mxGeometry>
        </mxCell>
        <mxCell id="27pvtsyfk3BGXvMzDFiC-8" value="&lt;font style=&quot;font-size: 9px;&quot;&gt;Real Weather Provider Controller&lt;/font&gt;&lt;div&gt;&lt;font style=&quot;font-size: 9px;&quot;&gt;&lt;br&gt;&lt;/font&gt;&lt;/div&gt;&lt;div&gt;&lt;font style=&quot;&quot;&gt;&lt;span style=&quot;font-weight: 400;&quot;&gt;&lt;font style=&quot;font-size: 7px;&quot;&gt;[Componnent: Spring Rest Controller]&lt;/font&gt;&lt;/span&gt;&lt;br&gt;&lt;/font&gt;&lt;/div&gt;&lt;div&gt;&lt;font style=&quot;font-size: 9px;&quot;&gt;&lt;span style=&quot;font-size: 8px; font-weight: 400;&quot;&gt;&lt;br&gt;&lt;/span&gt;&lt;/font&gt;&lt;/div&gt;&lt;div&gt;&lt;span style=&quot;font-weight: 400;&quot;&gt;Allows user to check the current or historical weather of a given location.&lt;/span&gt;&lt;br&gt;&lt;/div&gt;" style="rounded=1;whiteSpace=wrap;html=1;fontSize=8;fontStyle=1;fillColor=#dae8fc;strokeColor=#6c8ebf;" parent="1" vertex="1">
          <mxGeometry x="610" y="200.5" width="150" height="80" as="geometry" />
        </mxCell>
        <mxCell id="27pvtsyfk3BGXvMzDFiC-41" style="edgeStyle=orthogonalEdgeStyle;rounded=0;orthogonalLoop=1;jettySize=auto;html=1;exitX=0.5;exitY=1;exitDx=0;exitDy=0;entryX=0.5;entryY=0;entryDx=0;entryDy=0;" parent="1" source="27pvtsyfk3BGXvMzDFiC-9" target="27pvtsyfk3BGXvMzDFiC-40" edge="1">
          <mxGeometry relative="1" as="geometry" />
        </mxCell>
        <mxCell id="27pvtsyfk3BGXvMzDFiC-42" value="query for user score or scoreboard&amp;nbsp;" style="edgeLabel;html=1;align=center;verticalAlign=middle;resizable=0;points=[];fontSize=9;" parent="27pvtsyfk3BGXvMzDFiC-41" vertex="1" connectable="0">
          <mxGeometry x="-0.2619" y="-2" relative="1" as="geometry">
            <mxPoint x="2" y="8" as="offset" />
          </mxGeometry>
        </mxCell>
        <mxCell id="27pvtsyfk3BGXvMzDFiC-9" value="&lt;font style=&quot;font-size: 9px;&quot;&gt;Score Management Cru Controller&lt;/font&gt;&lt;div&gt;&lt;font style=&quot;font-size: 9px;&quot;&gt;&lt;br&gt;&lt;/font&gt;&lt;/div&gt;&lt;div&gt;&lt;font style=&quot;&quot;&gt;&lt;span style=&quot;font-weight: 400;&quot;&gt;&lt;font style=&quot;font-size: 7px;&quot;&gt;[Componnent: Spring Rest Controller]&lt;/font&gt;&lt;/span&gt;&lt;br&gt;&lt;/font&gt;&lt;/div&gt;&lt;div&gt;&lt;font style=&quot;&quot;&gt;&lt;span style=&quot;font-weight: 400;&quot;&gt;&lt;font style=&quot;font-size: 7px;&quot;&gt;&lt;br&gt;&lt;/font&gt;&lt;/span&gt;&lt;/font&gt;&lt;/div&gt;&lt;div&gt;&lt;font style=&quot;&quot;&gt;&lt;font style=&quot;&quot;&gt;&lt;span style=&quot;font-weight: 400;&quot;&gt;&lt;font style=&quot;font-size: 8px;&quot;&gt;Allows user to check his/her score and see a&amp;nbsp;&lt;/font&gt;&lt;/span&gt;&lt;span style=&quot;background-color: initial; font-weight: 400;&quot;&gt;scoreboard&lt;/span&gt;&lt;br&gt;&lt;/font&gt;&lt;/font&gt;&lt;/div&gt;" style="rounded=1;whiteSpace=wrap;html=1;fontSize=8;fontStyle=1;fillColor=#dae8fc;strokeColor=#6c8ebf;" parent="1" vertex="1">
          <mxGeometry x="185" y="200.5" width="150" height="80" as="geometry" />
        </mxCell>
        <mxCell id="7-ozE5FEiwkaNfamRzjg-3" style="edgeStyle=orthogonalEdgeStyle;rounded=0;orthogonalLoop=1;jettySize=auto;html=1;exitX=0.5;exitY=1;exitDx=0;exitDy=0;entryX=0.5;entryY=0;entryDx=0;entryDy=0;" edge="1" parent="1" source="27pvtsyfk3BGXvMzDFiC-10" target="27pvtsyfk3BGXvMzDFiC-47">
          <mxGeometry relative="1" as="geometry" />
        </mxCell>
        <mxCell id="7-ozE5FEiwkaNfamRzjg-4" value="&lt;font style=&quot;font-size: 9px;&quot;&gt;query for weather prediction&lt;br&gt;command to add or delete weather prediction&lt;/font&gt;&amp;nbsp;" style="edgeLabel;html=1;align=center;verticalAlign=middle;resizable=0;points=[];" vertex="1" connectable="0" parent="7-ozE5FEiwkaNfamRzjg-3">
          <mxGeometry x="-0.1845" y="-1" relative="1" as="geometry">
            <mxPoint as="offset" />
          </mxGeometry>
        </mxCell>
        <mxCell id="27pvtsyfk3BGXvMzDFiC-10" value="&lt;font style=&quot;font-size: 9px;&quot;&gt;Weather Prediction Crd Controller&lt;/font&gt;&lt;div&gt;&lt;font style=&quot;font-size: 9px;&quot;&gt;&lt;br&gt;&lt;/font&gt;&lt;/div&gt;&lt;div&gt;&lt;font style=&quot;&quot;&gt;&lt;span style=&quot;font-weight: 400;&quot;&gt;&lt;font style=&quot;font-size: 7px;&quot;&gt;[Componnent: Spring Rest Controller]&lt;/font&gt;&lt;/span&gt;&lt;br&gt;&lt;/font&gt;&lt;/div&gt;&lt;div&gt;&lt;font style=&quot;font-size: 9px;&quot;&gt;&lt;span style=&quot;font-size: 8px; font-weight: 400;&quot;&gt;&lt;br&gt;&lt;/span&gt;&lt;/font&gt;&lt;/div&gt;&lt;div&gt;&lt;font style=&quot;&quot;&gt;&lt;span style=&quot;font-weight: 400;&quot;&gt;Allows user to add, delete or check a weather prediction.&lt;/span&gt;&lt;br&gt;&lt;/font&gt;&lt;/div&gt;" style="rounded=1;whiteSpace=wrap;html=1;fontSize=8;fontStyle=1;fillColor=#dae8fc;strokeColor=#6c8ebf;" parent="1" vertex="1">
          <mxGeometry x="870" y="200.5" width="150" height="80" as="geometry" />
        </mxCell>
        <mxCell id="7-ozE5FEiwkaNfamRzjg-21" style="edgeStyle=orthogonalEdgeStyle;rounded=0;orthogonalLoop=1;jettySize=auto;html=1;exitX=0;exitY=0.25;exitDx=0;exitDy=0;entryX=1;entryY=0.215;entryDx=0;entryDy=0;entryPerimeter=0;" edge="1" parent="1" source="27pvtsyfk3BGXvMzDFiC-25" target="27pvtsyfk3BGXvMzDFiC-47">
          <mxGeometry relative="1" as="geometry">
            <Array as="points">
              <mxPoint x="1020" y="360" />
            </Array>
          </mxGeometry>
        </mxCell>
        <mxCell id="7-ozE5FEiwkaNfamRzjg-22" value="&lt;font style=&quot;font-size: 9px;&quot;&gt;command to&amp;nbsp;&lt;/font&gt;&lt;div&gt;&lt;font style=&quot;font-size: 9px;&quot;&gt;delete&amp;nbsp;&lt;/font&gt;&lt;div&gt;&lt;font style=&quot;font-size: 9px;&quot;&gt;weather prediction&lt;/font&gt;&lt;/div&gt;&lt;/div&gt;" style="edgeLabel;html=1;align=center;verticalAlign=middle;resizable=0;points=[];" vertex="1" connectable="0" parent="7-ozE5FEiwkaNfamRzjg-21">
          <mxGeometry x="-0.1338" y="2" relative="1" as="geometry">
            <mxPoint x="-9" y="-2" as="offset" />
          </mxGeometry>
        </mxCell>
        <mxCell id="27pvtsyfk3BGXvMzDFiC-25" value="&lt;div style=&quot;font-size: 9px;&quot;&gt;&lt;font style=&quot;font-size: 9px;&quot;&gt;Historical Prediction Cr Facade&lt;br&gt;&lt;/font&gt;&lt;/div&gt;&lt;div style=&quot;&quot;&gt;&lt;br&gt;&lt;/div&gt;&lt;div style=&quot;&quot;&gt;&lt;font style=&quot;font-weight: normal; font-size: 7px;&quot;&gt;[Componnent: Spring Bean]&lt;/font&gt;&lt;/div&gt;&lt;div style=&quot;&quot;&gt;&lt;font style=&quot;font-size: 8px; font-weight: normal;&quot;&gt;&lt;br&gt;&lt;/font&gt;&lt;/div&gt;&lt;div style=&quot;&quot;&gt;&lt;font style=&quot;font-size: 8px; font-weight: normal;&quot;&gt;Saves predictions as hsitoric with score,&amp;nbsp;&lt;/font&gt;&lt;/div&gt;&lt;div style=&quot;&quot;&gt;&lt;font style=&quot;font-size: 8px; font-weight: normal;&quot;&gt;reads historical prediction.&lt;/font&gt;&lt;/div&gt;" style="rounded=1;whiteSpace=wrap;html=1;fontSize=8;fontStyle=1;fillColor=#dae8fc;strokeColor=#6c8ebf;" parent="1" vertex="1">
          <mxGeometry x="1125" y="340" width="150" height="80" as="geometry" />
        </mxCell>
        <mxCell id="27pvtsyfk3BGXvMzDFiC-28" value="&lt;div&gt;&lt;font size=&quot;1&quot;&gt;&lt;b style=&quot;font-size: 8px;&quot;&gt;&lt;br&gt;&lt;/b&gt;&lt;/font&gt;&lt;/div&gt;&lt;font size=&quot;1&quot;&gt;&lt;b style=&quot;font-size: 9px;&quot;&gt;&lt;div style=&quot;font-size: 8px; line-height: 350%;&quot;&gt;&lt;font style=&quot;font-size: 9px;&quot;&gt;&lt;b style=&quot;font-size: 8px;&quot;&gt;&lt;br&gt;&lt;/b&gt;&lt;/font&gt;&lt;/div&gt;Historical Prediction Repository&lt;/b&gt;&lt;/font&gt;&lt;div&gt;&lt;font style=&quot;font-size: 7px;&quot;&gt;[Container: MySQL]&lt;/font&gt;&lt;/div&gt;&lt;div&gt;&lt;font style=&quot;font-size: 8px;&quot;&gt;Stores weather prediction information with score&lt;/font&gt;&lt;font style=&quot;font-size: 7px;&quot;&gt;.&lt;/font&gt;&lt;/div&gt;&lt;div&gt;&lt;font style=&quot;font-size: 7px;&quot;&gt;&lt;br&gt;&lt;/font&gt;&lt;/div&gt;" style="strokeWidth=2;html=1;shape=mxgraph.flowchart.database;whiteSpace=wrap;fillColor=#f5f5f5;strokeColor=#666666;fontColor=#333333;" parent="1" vertex="1">
          <mxGeometry x="1120" y="494.5" width="160" height="90" as="geometry" />
        </mxCell>
        <mxCell id="27pvtsyfk3BGXvMzDFiC-29" style="rounded=0;orthogonalLoop=1;jettySize=auto;html=1;exitX=0.5;exitY=1;exitDx=0;exitDy=0;entryX=0.5;entryY=0;entryDx=0;entryDy=0;entryPerimeter=0;" parent="1" source="27pvtsyfk3BGXvMzDFiC-25" target="27pvtsyfk3BGXvMzDFiC-28" edge="1">
          <mxGeometry relative="1" as="geometry" />
        </mxCell>
        <mxCell id="27pvtsyfk3BGXvMzDFiC-30" value="&lt;div&gt;&lt;font style=&quot;font-size: 9px;&quot;&gt;writes to and&lt;br&gt;&lt;/font&gt;&lt;/div&gt;&lt;font style=&quot;font-size: 9px;&quot;&gt;reads from&lt;br&gt;&lt;/font&gt;" style="edgeLabel;html=1;align=center;verticalAlign=middle;resizable=0;points=[];fontSize=9;" parent="27pvtsyfk3BGXvMzDFiC-29" vertex="1" connectable="0">
          <mxGeometry x="-0.2517" y="-1" relative="1" as="geometry">
            <mxPoint x="-1" y="-2" as="offset" />
          </mxGeometry>
        </mxCell>
        <mxCell id="27pvtsyfk3BGXvMzDFiC-34" style="edgeStyle=orthogonalEdgeStyle;rounded=0;orthogonalLoop=1;jettySize=auto;html=1;exitX=0.5;exitY=1;exitDx=0;exitDy=0;entryX=0.5;entryY=0;entryDx=0;entryDy=0;" parent="1" source="27pvtsyfk3BGXvMzDFiC-32" target="27pvtsyfk3BGXvMzDFiC-33" edge="1">
          <mxGeometry relative="1" as="geometry" />
        </mxCell>
        <mxCell id="27pvtsyfk3BGXvMzDFiC-35" value="query for real weather" style="edgeLabel;html=1;align=center;verticalAlign=middle;resizable=0;points=[];fontSize=9;" parent="27pvtsyfk3BGXvMzDFiC-34" vertex="1" connectable="0">
          <mxGeometry x="-0.1667" y="2" relative="1" as="geometry">
            <mxPoint x="-2" y="-1" as="offset" />
          </mxGeometry>
        </mxCell>
        <mxCell id="27pvtsyfk3BGXvMzDFiC-32" value="&lt;div style=&quot;font-size: 9px;&quot;&gt;Real Weather Provider&amp;nbsp;&lt;span style=&quot;background-color: initial;&quot;&gt;Facade&lt;/span&gt;&lt;br&gt;&lt;/div&gt;&lt;div&gt;&lt;br&gt;&lt;/div&gt;&lt;div style=&quot;&quot;&gt;&lt;font style=&quot;font-weight: normal; font-size: 7px;&quot;&gt;[Componnent: Spring Bean]&lt;/font&gt;&lt;/div&gt;&lt;div style=&quot;&quot;&gt;&lt;font style=&quot;font-size: 8px; font-weight: normal;&quot;&gt;&lt;br&gt;&lt;/font&gt;&lt;/div&gt;&lt;div style=&quot;&quot;&gt;&lt;span style=&quot;font-weight: 400;&quot;&gt;Reads, validates weather data form external API.&lt;/span&gt;&lt;/div&gt;&lt;div style=&quot;&quot;&gt;&lt;span style=&quot;font-weight: 400;&quot;&gt;&lt;br&gt;&lt;/span&gt;&lt;/div&gt;" style="rounded=1;whiteSpace=wrap;html=1;fontSize=8;fontStyle=1;fillColor=#dae8fc;strokeColor=#6c8ebf;" parent="1" vertex="1">
          <mxGeometry x="610" y="340.5" width="150" height="80" as="geometry" />
        </mxCell>
        <mxCell id="27pvtsyfk3BGXvMzDFiC-33" value="&lt;div style=&quot;font-size: 9px;&quot;&gt;&lt;font style=&quot;font-size: 9px;&quot;&gt;External Weather API&lt;/font&gt;&lt;/div&gt;&lt;div style=&quot;font-size: 9px;&quot;&gt;&lt;font style=&quot;font-size: 9px;&quot;&gt;&lt;br&gt;&lt;/font&gt;&lt;/div&gt;&lt;div style=&quot;&quot;&gt;&lt;font style=&quot;font-weight: normal; font-size: 7px;&quot;&gt;[Container: Software System]&lt;/font&gt;&lt;/div&gt;" style="rounded=1;whiteSpace=wrap;html=1;fontSize=8;fontStyle=1;fillColor=#f5f5f5;strokeColor=#666666;fontColor=#333333;" parent="1" vertex="1">
          <mxGeometry x="610" y="477.47" width="150" height="80" as="geometry" />
        </mxCell>
        <mxCell id="27pvtsyfk3BGXvMzDFiC-40" value="&lt;div style=&quot;font-size: 9px;&quot;&gt;Score Management Cru Facade&lt;br&gt;&lt;/div&gt;&lt;div&gt;&lt;br&gt;&lt;/div&gt;&lt;div style=&quot;&quot;&gt;&lt;font style=&quot;font-weight: normal; font-size: 7px;&quot;&gt;[Componnent: Spring Bean]&lt;/font&gt;&lt;/div&gt;&lt;div style=&quot;&quot;&gt;&lt;font style=&quot;font-size: 8px; font-weight: normal;&quot;&gt;&lt;br&gt;&lt;/font&gt;&lt;/div&gt;&lt;div style=&quot;&quot;&gt;&lt;span style=&quot;font-weight: 400;&quot;&gt;Calculates score,&amp;nbsp;&lt;/span&gt;&lt;span style=&quot;background-color: initial; font-weight: 400;&quot;&gt;writes, reads and updates score.&lt;/span&gt;&lt;/div&gt;&lt;div style=&quot;&quot;&gt;&lt;span style=&quot;font-weight: 400;&quot;&gt;&lt;br&gt;&lt;/span&gt;&lt;/div&gt;" style="rounded=1;whiteSpace=wrap;html=1;fontSize=8;fontStyle=1;fillColor=#dae8fc;strokeColor=#6c8ebf;" parent="1" vertex="1">
          <mxGeometry x="185" y="340.5" width="150" height="80" as="geometry" />
        </mxCell>
        <mxCell id="27pvtsyfk3BGXvMzDFiC-43" value="&lt;div&gt;&lt;font size=&quot;1&quot;&gt;&lt;b style=&quot;font-size: 8px;&quot;&gt;&lt;br&gt;&lt;/b&gt;&lt;/font&gt;&lt;/div&gt;&lt;font size=&quot;1&quot;&gt;&lt;b style=&quot;font-size: 9px;&quot;&gt;&lt;div style=&quot;font-size: 8px;&quot;&gt;&lt;font size=&quot;1&quot;&gt;&lt;b style=&quot;font-size: 8px;&quot;&gt;&lt;br&gt;&lt;/b&gt;&lt;/font&gt;&lt;/div&gt;Score Management Repository&lt;/b&gt;&lt;/font&gt;&lt;div&gt;&lt;font style=&quot;font-size: 7px;&quot;&gt;[Container: MySQL]&lt;/font&gt;&lt;/div&gt;&lt;div&gt;&lt;font style=&quot;font-size: 8px;&quot;&gt;Stores user score&lt;/font&gt;&lt;font style=&quot;font-size: 7px;&quot;&gt;.&lt;/font&gt;&lt;/div&gt;&lt;div&gt;&lt;font style=&quot;font-size: 7px;&quot;&gt;&lt;br&gt;&lt;/font&gt;&lt;/div&gt;" style="strokeWidth=2;html=1;shape=mxgraph.flowchart.database;whiteSpace=wrap;fillColor=#f5f5f5;fontColor=#333333;strokeColor=#666666;" parent="1" vertex="1">
          <mxGeometry x="180" y="480" width="160" height="90" as="geometry" />
        </mxCell>
        <mxCell id="27pvtsyfk3BGXvMzDFiC-44" style="edgeStyle=orthogonalEdgeStyle;rounded=0;orthogonalLoop=1;jettySize=auto;html=1;exitX=0.5;exitY=1;exitDx=0;exitDy=0;entryX=0.5;entryY=0;entryDx=0;entryDy=0;entryPerimeter=0;" parent="1" source="27pvtsyfk3BGXvMzDFiC-40" target="27pvtsyfk3BGXvMzDFiC-43" edge="1">
          <mxGeometry relative="1" as="geometry" />
        </mxCell>
        <mxCell id="27pvtsyfk3BGXvMzDFiC-45" value="&lt;span style=&quot;font-size: 9px;&quot;&gt;writes to,&amp;nbsp;&lt;/span&gt;&lt;span style=&quot;font-size: 9px;&quot;&gt;reads from and&lt;/span&gt;&lt;div&gt;&lt;span style=&quot;font-size: 9px;&quot;&gt;updates&lt;/span&gt;&lt;br&gt;&lt;/div&gt;" style="edgeLabel;html=1;align=center;verticalAlign=middle;resizable=0;points=[];" parent="27pvtsyfk3BGXvMzDFiC-44" vertex="1" connectable="0">
          <mxGeometry x="-0.0899" y="-1" relative="1" as="geometry">
            <mxPoint as="offset" />
          </mxGeometry>
        </mxCell>
        <mxCell id="7-ozE5FEiwkaNfamRzjg-24" style="edgeStyle=orthogonalEdgeStyle;rounded=0;orthogonalLoop=1;jettySize=auto;html=1;exitX=0;exitY=0.25;exitDx=0;exitDy=0;" edge="1" parent="1" source="27pvtsyfk3BGXvMzDFiC-47">
          <mxGeometry relative="1" as="geometry">
            <mxPoint x="760" y="360" as="targetPoint" />
            <Array as="points">
              <mxPoint x="870" y="360" />
            </Array>
          </mxGeometry>
        </mxCell>
        <mxCell id="7-ozE5FEiwkaNfamRzjg-27" value="&lt;font style=&quot;font-size: 9px;&quot;&gt;query for actual date&lt;/font&gt;" style="edgeLabel;html=1;align=center;verticalAlign=middle;resizable=0;points=[];" vertex="1" connectable="0" parent="7-ozE5FEiwkaNfamRzjg-24">
          <mxGeometry x="0.0494" y="-3" relative="1" as="geometry">
            <mxPoint as="offset" />
          </mxGeometry>
        </mxCell>
        <mxCell id="27pvtsyfk3BGXvMzDFiC-47" value="&lt;div style=&quot;font-size: 9px;&quot;&gt;Weather Prediction Crd&amp;nbsp;&lt;span style=&quot;background-color: initial;&quot;&gt;Facade&lt;/span&gt;&lt;br&gt;&lt;/div&gt;&lt;div&gt;&lt;br&gt;&lt;/div&gt;&lt;div style=&quot;&quot;&gt;&lt;font style=&quot;font-weight: normal; font-size: 7px;&quot;&gt;[Componnent: Spring Bean]&lt;/font&gt;&lt;/div&gt;&lt;div style=&quot;&quot;&gt;&lt;font style=&quot;font-size: 8px; font-weight: normal;&quot;&gt;&lt;br&gt;&lt;/font&gt;&lt;/div&gt;&lt;div style=&quot;&quot;&gt;&lt;span style=&quot;font-weight: 400;&quot;&gt;Reads, writes. validates and deletes weather prediction.&lt;/span&gt;&lt;span style=&quot;font-weight: 400; background-color: initial;&quot;&gt;&amp;nbsp;&lt;/span&gt;&lt;/div&gt;&lt;div style=&quot;&quot;&gt;&lt;span style=&quot;font-weight: 400;&quot;&gt;&lt;br&gt;&lt;/span&gt;&lt;/div&gt;" style="rounded=1;whiteSpace=wrap;html=1;fontSize=8;fontStyle=1;fillColor=#dae8fc;strokeColor=#6c8ebf;" parent="1" vertex="1">
          <mxGeometry x="870" y="343.03" width="150" height="80" as="geometry" />
        </mxCell>
        <mxCell id="7-ozE5FEiwkaNfamRzjg-1" value="&lt;div&gt;&lt;b style=&quot;background-color: initial; font-size: 9px;&quot;&gt;&lt;br&gt;&lt;/b&gt;&lt;/div&gt;&lt;div&gt;&lt;b style=&quot;background-color: initial; font-size: 9px;&quot;&gt;&lt;br&gt;&lt;/b&gt;&lt;/div&gt;&lt;div&gt;&lt;b style=&quot;background-color: initial; font-size: 9px;&quot;&gt;Weather Prediction Repository&lt;/b&gt;&lt;br&gt;&lt;/div&gt;&lt;div&gt;&lt;font style=&quot;font-size: 7px;&quot;&gt;[Container: MySQL]&lt;/font&gt;&lt;/div&gt;&lt;div&gt;&lt;font style=&quot;font-size: 8px;&quot;&gt;Stores weather prediction informations.&lt;/font&gt;&lt;/div&gt;&lt;div&gt;&lt;font style=&quot;font-size: 7px;&quot;&gt;&lt;br&gt;&lt;/font&gt;&lt;/div&gt;" style="strokeWidth=2;html=1;shape=mxgraph.flowchart.database;whiteSpace=wrap;fillColor=#f5f5f5;strokeColor=#666666;fontColor=#333333;" vertex="1" parent="1">
          <mxGeometry x="865" y="490" width="160" height="90" as="geometry" />
        </mxCell>
        <mxCell id="7-ozE5FEiwkaNfamRzjg-2" style="rounded=0;orthogonalLoop=1;jettySize=auto;html=1;exitX=0.5;exitY=1;exitDx=0;exitDy=0;entryX=0.5;entryY=0;entryDx=0;entryDy=0;entryPerimeter=0;" edge="1" parent="1" source="27pvtsyfk3BGXvMzDFiC-47" target="7-ozE5FEiwkaNfamRzjg-1">
          <mxGeometry relative="1" as="geometry" />
        </mxCell>
        <mxCell id="7-ozE5FEiwkaNfamRzjg-5" value="&lt;span style=&quot;font-size: 9px;&quot;&gt;writes to,&amp;nbsp;&lt;/span&gt;&lt;span style=&quot;font-size: 9px;&quot;&gt;reads from and&lt;/span&gt;&lt;div&gt;&lt;span style=&quot;font-size: 9px;&quot;&gt;deletes&lt;/span&gt;&lt;/div&gt;" style="edgeLabel;html=1;align=center;verticalAlign=middle;resizable=0;points=[];" vertex="1" connectable="0" parent="7-ozE5FEiwkaNfamRzjg-2">
          <mxGeometry x="-0.1365" relative="1" as="geometry">
            <mxPoint as="offset" />
          </mxGeometry>
        </mxCell>
        <mxCell id="7-ozE5FEiwkaNfamRzjg-10" style="rounded=0;orthogonalLoop=1;jettySize=auto;html=1;exitX=0;exitY=0.25;exitDx=0;exitDy=0;entryX=1;entryY=0.5;entryDx=0;entryDy=0;" edge="1" parent="1" source="7-ozE5FEiwkaNfamRzjg-6" target="27pvtsyfk3BGXvMzDFiC-40">
          <mxGeometry relative="1" as="geometry" />
        </mxCell>
        <mxCell id="7-ozE5FEiwkaNfamRzjg-11" value="&lt;font style=&quot;font-size: 9px;&quot;&gt;command to manage score&lt;/font&gt;" style="edgeLabel;html=1;align=center;verticalAlign=middle;resizable=0;points=[];" vertex="1" connectable="0" parent="7-ozE5FEiwkaNfamRzjg-10">
          <mxGeometry x="0.2681" y="-2" relative="1" as="geometry">
            <mxPoint x="26" y="15" as="offset" />
          </mxGeometry>
        </mxCell>
        <mxCell id="7-ozE5FEiwkaNfamRzjg-12" style="rounded=0;orthogonalLoop=1;jettySize=auto;html=1;exitX=1;exitY=0.25;exitDx=0;exitDy=0;entryX=0;entryY=0.5;entryDx=0;entryDy=0;" edge="1" parent="1" source="7-ozE5FEiwkaNfamRzjg-6" target="27pvtsyfk3BGXvMzDFiC-32">
          <mxGeometry relative="1" as="geometry" />
        </mxCell>
        <mxCell id="7-ozE5FEiwkaNfamRzjg-15" value="&lt;font style=&quot;font-size: 9px;&quot;&gt;query for actual date,&amp;nbsp;&lt;/font&gt;&lt;div&gt;&lt;font style=&quot;font-size: 9px;&quot;&gt;hour, temperature&lt;/font&gt;&lt;/div&gt;" style="edgeLabel;html=1;align=center;verticalAlign=middle;resizable=0;points=[];" vertex="1" connectable="0" parent="7-ozE5FEiwkaNfamRzjg-12">
          <mxGeometry x="0.0517" y="-1" relative="1" as="geometry">
            <mxPoint x="-8" y="3" as="offset" />
          </mxGeometry>
        </mxCell>
        <mxCell id="7-ozE5FEiwkaNfamRzjg-17" style="edgeStyle=orthogonalEdgeStyle;rounded=0;orthogonalLoop=1;jettySize=auto;html=1;exitX=0.75;exitY=1;exitDx=0;exitDy=0;entryX=0;entryY=0.5;entryDx=0;entryDy=0;" edge="1" parent="1" source="7-ozE5FEiwkaNfamRzjg-6" target="27pvtsyfk3BGXvMzDFiC-47">
          <mxGeometry relative="1" as="geometry">
            <mxPoint x="840" y="363" as="targetPoint" />
            <Array as="points">
              <mxPoint x="483" y="580" />
              <mxPoint x="810" y="580" />
              <mxPoint x="810" y="383" />
            </Array>
          </mxGeometry>
        </mxCell>
        <mxCell id="7-ozE5FEiwkaNfamRzjg-18" value="&lt;font style=&quot;font-size: 9px;&quot;&gt;query for weather predictions in specified date range&lt;/font&gt;" style="edgeLabel;html=1;align=center;verticalAlign=middle;resizable=0;points=[];" vertex="1" connectable="0" parent="7-ozE5FEiwkaNfamRzjg-17">
          <mxGeometry x="-0.3778" relative="1" as="geometry">
            <mxPoint x="-14" as="offset" />
          </mxGeometry>
        </mxCell>
        <mxCell id="7-ozE5FEiwkaNfamRzjg-19" style="edgeStyle=orthogonalEdgeStyle;rounded=0;orthogonalLoop=1;jettySize=auto;html=1;exitX=0.25;exitY=1;exitDx=0;exitDy=0;entryX=0;entryY=0.75;entryDx=0;entryDy=0;" edge="1" parent="1" source="7-ozE5FEiwkaNfamRzjg-6" target="27pvtsyfk3BGXvMzDFiC-25">
          <mxGeometry relative="1" as="geometry">
            <Array as="points">
              <mxPoint x="408" y="600" />
              <mxPoint x="1080" y="600" />
              <mxPoint x="1080" y="400" />
            </Array>
          </mxGeometry>
        </mxCell>
        <mxCell id="7-ozE5FEiwkaNfamRzjg-20" value="&lt;font style=&quot;font-size: 9px;&quot;&gt;command to transfer weather prediction&lt;/font&gt;" style="edgeLabel;html=1;align=center;verticalAlign=middle;resizable=0;points=[];" vertex="1" connectable="0" parent="7-ozE5FEiwkaNfamRzjg-19">
          <mxGeometry x="-0.6079" y="-2" relative="1" as="geometry">
            <mxPoint x="-4" y="-2" as="offset" />
          </mxGeometry>
        </mxCell>
        <mxCell id="7-ozE5FEiwkaNfamRzjg-6" value="&lt;div style=&quot;font-size: 9px;&quot;&gt;Result Checker Facade&lt;br&gt;&lt;/div&gt;&lt;div&gt;&lt;br&gt;&lt;/div&gt;&lt;div style=&quot;&quot;&gt;&lt;font style=&quot;font-weight: normal; font-size: 7px;&quot;&gt;[Componnent: Spring Bean]&lt;/font&gt;&lt;/div&gt;&lt;div style=&quot;&quot;&gt;&lt;font style=&quot;font-size: 8px; font-weight: normal;&quot;&gt;&lt;br&gt;&lt;/font&gt;&lt;/div&gt;&lt;div style=&quot;line-height: 100%;&quot;&gt;&lt;span style=&quot;font-weight: 400;&quot;&gt;Compares weathers,&amp;nbsp;&lt;/span&gt;&lt;span style=&quot;background-color: initial; font-weight: 400;&quot;&gt;manages score&amp;nbsp;&lt;/span&gt;&lt;span style=&quot;background-color: initial; font-weight: 400;&quot;&gt;assignment, transfers weather prediction.&lt;/span&gt;&lt;/div&gt;&lt;div style=&quot;&quot;&gt;&lt;span style=&quot;font-weight: 400;&quot;&gt;&lt;br&gt;&lt;/span&gt;&lt;/div&gt;" style="rounded=1;whiteSpace=wrap;html=1;fontSize=8;fontStyle=1;fillColor=#dae8fc;strokeColor=#6c8ebf;" vertex="1" parent="1">
          <mxGeometry x="390.07" y="438.03" width="150" height="80" as="geometry" />
        </mxCell>
        <mxCell id="7-ozE5FEiwkaNfamRzjg-8" style="edgeStyle=orthogonalEdgeStyle;rounded=0;orthogonalLoop=1;jettySize=auto;html=1;exitX=0.5;exitY=1;exitDx=0;exitDy=0;entryX=0.5;entryY=0;entryDx=0;entryDy=0;" edge="1" parent="1" source="7-ozE5FEiwkaNfamRzjg-7" target="7-ozE5FEiwkaNfamRzjg-6">
          <mxGeometry relative="1" as="geometry" />
        </mxCell>
        <mxCell id="7-ozE5FEiwkaNfamRzjg-9" value="&lt;font style=&quot;font-size: 9px;&quot;&gt;command to check results&lt;/font&gt;" style="edgeLabel;html=1;align=center;verticalAlign=middle;resizable=0;points=[];" vertex="1" connectable="0" parent="7-ozE5FEiwkaNfamRzjg-8">
          <mxGeometry x="-0.0224" y="3" relative="1" as="geometry">
            <mxPoint x="-3" y="-12" as="offset" />
          </mxGeometry>
        </mxCell>
        <mxCell id="7-ozE5FEiwkaNfamRzjg-7" value="&lt;div style=&quot;font-size: 9px;&quot;&gt;Results Scheduler&lt;/div&gt;&lt;div style=&quot;&quot;&gt;&lt;font style=&quot;font-weight: normal; font-size: 7px;&quot;&gt;&lt;br&gt;&lt;/font&gt;&lt;/div&gt;&lt;div style=&quot;&quot;&gt;&lt;font style=&quot;font-weight: normal; font-size: 7px;&quot;&gt;[Componnent: Spring Bean]&lt;/font&gt;&lt;/div&gt;&lt;div style=&quot;&quot;&gt;&lt;font style=&quot;font-size: 8px; font-weight: normal;&quot;&gt;&lt;br&gt;&lt;/font&gt;&lt;/div&gt;&lt;div style=&quot;line-height: 120%;&quot;&gt;&lt;span style=&quot;font-weight: 400;&quot;&gt;Runs&amp;nbsp;&lt;/span&gt;&lt;span style=&quot;background-color: initial; font-weight: 400;&quot;&gt;weather prediction check every hour.&lt;/span&gt;&lt;/div&gt;" style="rounded=1;whiteSpace=wrap;html=1;fontSize=8;fontStyle=1;dashed=1;fillColor=#dae8fc;strokeColor=#6c8ebf;" vertex="1" parent="1">
          <mxGeometry x="390.07" y="290" width="150" height="80" as="geometry" />
        </mxCell>
        <mxCell id="7-ozE5FEiwkaNfamRzjg-30" value="&lt;font style=&quot;font-size: 11px;&quot;&gt;CONTAINER:&lt;/font&gt;&lt;div style=&quot;&quot;&gt;&lt;span style=&quot;font-size: 11px;&quot;&gt;weather-forecasting-game&lt;br&gt;&lt;/span&gt;[Software system backend]&lt;/div&gt;" style="rounded=0;whiteSpace=wrap;html=1;fillColor=#0050ef;strokeColor=#001DBC;fontColor=#ffffff;fontStyle=1" vertex="1" parent="1">
          <mxGeometry x="230" y="610" width="170" height="50" as="geometry" />
        </mxCell>
      </root>
    </mxGraphModel>
  </diagram>
</mxfile>
